<svg height="512" viewBox="0 0 60 60" width="512" xmlns="http://www.w3.org/2000/svg"><g id="Page-1" fill="none" fill-rule="evenodd"><g id="072---Rental-Car"><path id="Path" d="m53 31 5.414 5.414c.3750987.3749855.5858867.8836104.586 1.414v13.172c0 1.1045695-.8954305 2-2 2h-54c-1.1045695 0-2-.8954305-2-2v-13.172c.00011327-.5303896.21090125-1.0390145.586-1.414l5.414-5.414z" fill="#c6d8fb"/><path id="Path" d="m58.414 36.414-5.414-5.414h-3l5.414 5.414c.3750987.3749855.5858867.8836104.586 1.414v13.172c0 1.1045695-.8954305 2-2 2h3c1.1045695 0 2-.8954305 2-2v-13.172c-.0001133-.5303896-.2109013-1.0390145-.586-1.414z" fill="#a4c3fd"/><path id="Path" d="m3 53h11v4c0 1.1045695-.8954305 2-2 2h-7c-1.1045695 0-2-.8954305-2-2z" fill="#a4c2f7"/><path id="Path" d="m11 53v4c0 1.1045695-.8954305 2-2 2h3c1.1045695 0 2-.8954305 2-2v-4z" fill="#7facfa"/><path id="Path" d="m46 53h11v4c0 1.1045695-.8954305 2-2 2h-7c-1.1045695 0-2-.8954305-2-2z" fill="#a4c2f7"/><path id="Path" d="m54 53v4c0 1.1045695-.8954305 2-2 2h3c1.1045695 0 2-.8954305 2-2v-4z" fill="#7facfa"/><path id="Path" d="m53 31-3.088-9.265c-.5445181-1.6334266-2.0732038-2.7351276-3.795-2.735h-32.234c-1.7217962-.0001276-3.2504819 1.1015734-3.795 2.735l-3.088 9.265z" fill="#e8edfc"/><path id="Path" d="m49.912 21.735c-.5445181-1.6334266-2.0732038-2.7351276-3.795-2.735l-3-.0000035c1.7236362-.0022783 3.2549011 1.0998294 3.8 2.7350035l3.083 9.265h3z" fill="#cad9fc"/><path id="Path" d="m37.607 44h-15.214c-.2685724.000039-.5286578-.0940872-.735-.266l-3.242-2.7c-.3735717-.3093162-.5126883-.8198926-.3476606-1.2759608.1650276-.4560682.598655-.759398 1.0836606-.7580392h21.7c.4839897-.0003391.916299.302644 1.0811236.7577033.1648247.4550592.0268199.9646128-.3451236 1.2742967l-3.242 2.7c-.207119.1735163-.4688038.2684169-.739.268z" fill="#a4c2f7"/><path id="Path" d="m55 40v3c0 .5522847-.4477153 1-1 1h-7.848c-.4836546.0011528-.9160607-.3012036-1.0809869-.7558709-.1649261-.4546674-.0269278-.9639325.3449869-1.2731291l3.253-2.7c.2059548-.1738612.4664752-.2697865.736-.271h4.595c.2652165 0 .5195704.1053568.7071068.2928932s.2928932.4418903.2928932.7071068z" fill="#e8edfc"/><path id="Path" d="m5 40v3c0 .5522847.44771525 1 1 1h7.846c.4836546.0011528.9160607-.3012036 1.0809869-.7558709.1649261-.4546674.0269278-.9639325-.3449869-1.2731291l-3.253-2.7c-.2041097-.1723289-.4618859-.2681552-.729-.271h-4.6c-.55228475 0-1 .4477153-1 1z" fill="#e8edfc"/><path id="Path" d="m3 27h2c1.1045695 0 2 .8954305 2 2v2h-4c-1.1045695 0-2-.8954305-2-2s.8954305-2 2-2z" fill="#c6d8fb"/><path id="Path" d="m55 27h4v2c0 1.1045695-.8954305 2-2 2h-2c-1.1045695 0-2-.8954305-2-2s.8954305-2 2-2z" fill="#c6d8fb" transform="matrix(-1 0 0 -1 112 58)"/><path id="Shape" d="m22 1h-9.17c-.5329123.00024132-1.0438267.21252266-1.42.59l-1.82 1.82c-.37747734.37617334-.58975868.88708775-.59 1.42v6.34c.00024132.5329123.21252266 1.0438267.59 1.42l1.82 1.82c.3761733.3774773.8870877.5897587 1.42.59h9.17c1.1032019-.0032948 1.9967052-.8967981 2-2v-10c-.0032948-1.10320187-.8967981-1.9967052-2-2zm-5 9c0 .5522847-.4477153 1-1 1h-2c-.5522847 0-1-.4477153-1-1v-4c0-.55228475.4477153-1 1-1h2c.5522847 0 1 .44771525 1 1z" fill="#c6d8fb" fill-rule="nonzero"/><path id="Path" d="m24 2.99999938 2.17.00000062c.5315729-.00041816 1.0414438.21079868 1.417.587l.823.823c.3775898.37780519.8898551.59004994 1.424.59h17.5c.2163702 0 .4269038.07017787.6.2l2.67 2c.2518058.18885438.4.4852427.4.8s-.1481942.61114562-.4.8l-2.67 2c-.1730962.1298221-.3836298.2-.6.2h-1.92c-.2651948-.0000566-.5195073-.1054506-.707-.293l-1-1c-.3904999-.39038194-1.0235001-.39038194-1.414 0l-1 1c-.1874927.1875494-.4418052.2929434-.707.293h-2.172c-.2651948-.0000566-.5195073-.1054506-.707-.293l-1-1c-.3904999-.39038194-1.0235001-.39038194-1.414 0l-1 1c-.1874927.1875494-.4418052.2929434-.707.293h-3.756c-.5315729-.0004182-1.0414438.2107987-1.417.587l-.823.823c-.3775898.3778052-.8898551.5900499-1.424.59h-2.166z" fill="#a4c2f7"/><path id="Path" d="m50.6 7.2-2.67-2c-.1730962-.12982213-.3836298-.2-.6-.2h-3c.2163702 0 .4269038.07017787.6.2l2.67 2c.2518058.18885438.4.4852427.4.8s-.1481942.61114562-.4.8l-2.67 2c-.015.011-.032.015-.047.025.1563562.1084484.3408025.1692358.531.175h1.916c.2163702 0 .4269038-.0701779.6-.2l2.67-2c.2518058-.18885438.4-.4852427.4-.8s-.1481942-.61114562-.4-.8z" fill="#7facfa"/><path id="Path" d="m11.41 14.41c.3761733.3774773.8870877.5897587 1.42.59h3c-.5329123-.0002413-1.0438267-.2125227-1.42-.59l-1.82-1.82c-.3774773-.3761733-.5897587-.8870877-.59-1.42v-6.34c.0002413-.53291225.2125227-1.04382666.59-1.42l1.82-1.82c.3761733-.37747734.8870877-.58975868 1.42-.59h-3c-.5329123.00024132-1.0438267.21252266-1.42.59l-1.82 1.82c-.37747734.37617334-.58975868.88708775-.59 1.42v6.34c.00024132.5329123.21252266 1.0438267.59 1.42z" fill="#fff"/><path id="Path" d="m6 57v-4c-1.1045695 0-2-.8954305-2-2v-13.172c.00011327-.5303896.21090125-1.0390145.586-1.414l5.414-5.414h-3l-5.414 5.414c-.37509875.3749855-.58588673.8836104-.586 1.414v13.172c0 1.1045695.8954305 2 2 2v4c0 1.1045695.8954305 2 2 2h3c-1.1045695 0-2-.8954305-2-2z" fill="#fff"/><path id="Path" d="m10 31 3.088-9.265c.5445181-1.6334266 2.0732038-2.7351276 3.795-2.735h-3c-1.7217962-.0001276-3.2504819 1.1015734-3.795 2.735l-3.088 9.265z" fill="#fff"/><path id="Path" d="m3 31h3c-.99640712-.0136899-1.83072436-.758801-1.95652339-1.7473298s.49530398-1.918855 1.45652339-2.1816702c-.16292127-.0450635-.33097408-.068927-.5-.071h-2c-1.1045695 0-2 .8954305-2 2s.8954305 2 2 2z" fill="#fff"/><path id="Rectangle" d="m0 43h2v8h-2z" fill="#fff"/><g fill="#428dff"><circle id="Oval" cx="1" cy="47" r="1"/><path id="Shape" d="m42.87 39.417c-.3032037-.8544945-1.1143276-1.4232043-2.021-1.417h-21.7c-.9046808.0002716-1.7123129.5670951-2.0201328 1.4177973-.3078199.8507023-.0499012 1.8030869.6451328 2.3822027l3.242 2.7c.3863498.3219861.8730688.4988462 1.376.5h15.214c.5029312-.0011538.9896502-.1780139 1.376-.5l3.242-2.7c.7004356-.5759699.9596376-1.5321282.646-2.383zm-1.926.847-3.241 2.7c-.0283117.022828-.0636319.0351901-.1.035h-15.209c-.0364379.0006152-.0718988-.0117962-.1-.035l-3.242-2.7c-.0491913-.0404709-.0672144-.1077364-.0448479-.1673805.0223665-.059644.080175-.0984727.1438479-.0966195h21.7c.0638597-.0023056.1220793.0363653.1447149.0961231.0226355.0597579.0046465.1272958-.0447149.1678769z" fill-rule="nonzero"/><path id="Shape" d="m56 43v-3c0-1.1045695-.8954305-2-2-2h-4.595c-.5028866.0014057-.9895228.1782357-1.376.5l-3.252 2.7c-.6974426.5780791-.9570193 1.5317065-.6487946 2.3835277.3082247.8518211 1.1179263 1.4185386 2.0237946 1.4164723h7.848c1.1045695 0 2-.8954305 2-2zm-2 0h-7.848c-.065325.0063565-.1253974-.036248-.141-.1-.0266382-.0577383-.0076009-.1262726.045-.162l3.253-2.706c.0280171-.0232468.0636195-.0353516.1-.034h4.591z" fill-rule="nonzero"/><path id="Shape" d="m15.87 43.581c.3134746-.8493353.0541288-1.804017-.646-2.378l-3.253-2.703c-.3851547-.3206726-.8698329-.4974335-1.371-.5h-4.6c-1.1045695 0-2 .8954305-2 2v3c0 1.1045695.8954305 2 2 2h7.846c.908386.0074957 1.7213676-.5624751 2.024-1.419zm-1.881-.681c-.0156026.063752-.075675.1063565-.141.1h-7.848v-3h4.6c.0363805-.0013516.0719829.0107532.1.034l3.254 2.707c.0478616.0380154.0624748.1044012.035.159z" fill-rule="nonzero"/><path id="Path" d="m13 48h-7c-.55228475 0-1 .4477153-1 1s.44771525 1 1 1h7c.5522847 0 1-.4477153 1-1s-.4477153-1-1-1z"/><path id="Path" d="m47 48c-.5522847 0-1 .4477153-1 1s.4477153 1 1 1h7c.5522847 0 1-.4477153 1-1s-.4477153-1-1-1z"/><path id="Path" d="m21 48c-.5522847 0-1 .4477153-1 1s.4477153 1 1 1h18c.5522847 0 1-.4477153 1-1s-.4477153-1-1-1z"/><path id="Shape" d="m60 29c0-1.6568542-1.3431458-3-3-3h-2c-.8713693.0028935-1.6978478.3869028-2.262 1.051l-1.878-5.632c-.6786313-2.042974-2.5902624-3.4209767-4.743-3.419h-32.234c-2.1527376-.0019767-4.06436875 1.376026-4.743 3.419l-1.878 5.632c-.5641522-.6640972-1.3906307-1.0481065-2.262-1.051h-2c-1.6568542.0000001-2.99999987 1.3431458-2.99999987 3s1.34314567 2.9999999 2.99999987 3h1.586l-3.707 3.707c-.56471277.5610959-.8812673 1.3249322-.879 2.121v5.172c0 .5522847.44771525 1 1 1s1-.4477153 1-1v-5.172c.00103485-.2649991.10628052-.5189537.293-.707l5.121-5.121h45.172l5.121 5.121c.1867195.1880463.2919651.4420009.293.707v13.172c0 .5522847-.4477153 1-1 1h-54c-.55228475 0-1-.4477153-1-1s-.44771525-1-1-1-1 .4477153-1 1c.00525139 1.2667854.80564914 2.3937454 2 2.816v3.184c0 1.6568542 1.34314575 3 3 3h7c1.6568542 0 3-1.3431458 3-3v-3h30v3c0 1.6568542 1.3431458 3 3 3h7c1.6568542 0 3-1.3431458 3-3v-3.184c1.1943509-.4222546 1.9947486-1.5492146 2-2.816v-13.172c.0022673-.7960678-.3142872-1.5599041-.879-2.121l-3.707-3.707h1.586c1.6568542 0 3-1.3431458 3-3zm-47 28c0 .5522847-.4477153 1-1 1h-7c-.55228475 0-1-.4477153-1-1v-3h9zm43 0c0 .5522847-.4477153 1-1 1h-7c-.5522847 0-1-.4477153-1-1v-3h9zm-2-28c0-.5522847.4477153-1 1-1h2c.5522847 0 1 .4477153 1 1s-.4477153 1-1 1h-3zm-42.963-6.948c.4080995-1.225279 1.5545458-2.0518805 2.846-2.052h32.234c1.2914542.0001195 2.4379005.826721 2.846 2.052l2.649 7.948h-43.224zm-9.037 6.948c0-.5522847.44771525-1 1-1h2c.55228475 0 1 .4477153 1 1v1h-3c-.55228475 0-1-.4477153-1-1z" fill-rule="nonzero"/><path id="Shape" d="m12.829 16h9.171c1.2667854-.0052514 2.3937454-.8056491 2.816-2h1.35c.7989258-.00208 1.5647437-.3194039 2.131-.883l.823-.823c.1880628-.1886528.4436219-.2944759.71-.294h3.756c.5306972.0014371 1.0398938-.2095879 1.414-.586l1-1 1 1c.3741062.3764121.8833028.5874371 1.414.586h2.172c.5306972.0014371 1.0398938-.2095879 1.414-.586l1-1 1 1c.3741062.3764121.8833028.5874371 1.414.586h1.916c.4324846-.0015676.8530718-.1417633 1.2-.4l2.67-2c.5036117-.37770876.8-.97048539.8-1.6s-.2963883-1.22229124-.8-1.6l-2.67-2c-.346663-.25874479-.7674228-.39899805-1.2-.4h-17.5c-.2692264-.00145451-.526959-.10929241-.717-.3l-.823-.823c-.5614345-.56335468-1.3246555-.87908334-2.12-.877h-1.354c-.4222546-1.19435086-1.5492146-1.99474861-2.816-2h-9.171c-.7964142-.00253492-1.5606602.31404016-2.122.879l-1.828 1.828c-.56471277.56109586-.8812673 1.32493221-.879 2.121v6.344c-.0022673.7960678.31428723 1.5599041.879 2.121l1.828 1.828c.5613398.5649598 1.3255858.8815349 2.122.879zm14.051-11.706.823.823c.5662563.56359608 1.3320742.88091996 2.131.883h17.5l2.666 2-2.67 2h-1.916l-1-1c-.7809997-.78076388-2.0470003-.78076388-2.828 0l-1 1h-2.172l-1-1c-.7809997-.78076388-2.0470003-.78076388-2.828 0l-1 1h-3.756c-.7971633-.00235855-1.5620838.3145577-2.124.88l-.824.823c-.1895475.190833-.4470319.2987175-.716.3h-1.166v-8.0030016l1.17.0000016c.2663781-.00047591.5219372.10534716.71.294zm-16.88 6.878v-6.344c.0010349-.26499909.1062805-.51895366.293-.707l1.828-1.828c.1877377-.18779456.4424587-.29320875.708-.293h9.171c.5522847 0 1 .44771525 1 1v10c0 .5522847-.4477153 1-1 1h-9.171c-.2655413.0002088-.5202623-.1052054-.708-.293l-1.828-1.828c-.1867195-.1880463-.2919651-.4420009-.293-.707z" fill-rule="nonzero"/><path id="Shape" d="m14 12h2c1.1045695 0 2-.8954305 2-2v-4c0-1.1045695-.8954305-2-2-2h-2c-1.1045695 0-2 .8954305-2 2v4c0 1.1045695.8954305 2 2 2zm0-6h2v4h-2z" fill-rule="nonzero"/></g></g></g></svg>